<mxfile host="65bd71144e">
    <diagram name="Page-1" id="2cc2dc42-3aac-f2a9-1cec-7a8b7cbee084">
        <mxGraphModel dx="1051" dy="524" grid="1" gridSize="10" guides="1" tooltips="1" connect="1" arrows="1" fold="1" page="1" pageScale="1" pageWidth="1100" pageHeight="850" background="none" math="0" shadow="0">
            <root>
                <mxCell id="0"/>
                <mxCell id="1" parent="0"/>
                <mxCell id="7026571954dc6520-1" value="" style="strokeWidth=1;shadow=0;dashed=0;align=center;html=1;shape=mxgraph.mockup.containers.browserWindow;rSize=0;strokeColor=#666666;mainText=,;recursiveResize=0;rounded=0;labelBackgroundColor=none;fontFamily=Verdana;fontSize=12" parent="1" vertex="1">
                    <mxGeometry x="120" y="50" width="1050" height="820" as="geometry"/>
                </mxCell>
                <mxCell id="kXkB8BaBZtwnOEhQoFVB-21" value="" style="shape=image;imageAspect=0;aspect=fixed;verticalLabelPosition=bottom;verticalAlign=top;image=https://cdn.sortiraparis.com/images/80/3834/80869-la-jeune-tigresse-isha.jpg;clipPath=inset(0% 0% 0% 0% round 48%);" parent="7026571954dc6520-1" vertex="1">
                    <mxGeometry x="453.88000000000005" y="225" width="112.24" height="110" as="geometry"/>
                </mxCell>
                <mxCell id="7026571954dc6520-2" value="Page 1" style="strokeWidth=1;shadow=0;dashed=0;align=center;html=1;shape=mxgraph.mockup.containers.anchor;fontSize=17;fontColor=#666666;align=left;" parent="7026571954dc6520-1" vertex="1">
                    <mxGeometry x="60" y="12" width="110" height="26" as="geometry"/>
                </mxCell>
                <mxCell id="7026571954dc6520-3" value="https://www.lestigresses.com" style="strokeWidth=1;shadow=0;dashed=0;align=center;html=1;shape=mxgraph.mockup.containers.anchor;rSize=0;fontSize=17;fontColor=#666666;align=left;" parent="7026571954dc6520-1" vertex="1">
                    <mxGeometry x="130" y="60" width="250" height="26" as="geometry"/>
                </mxCell>
                <mxCell id="kXkB8BaBZtwnOEhQoFVB-4" value="&lt;div&gt;Les Tigresses &amp;nbsp; &lt;br&gt;&lt;/div&gt;" style="text;strokeColor=none;fillColor=none;html=1;fontSize=24;fontStyle=1;verticalAlign=middle;align=center;" parent="7026571954dc6520-1" vertex="1">
                    <mxGeometry x="400" y="150" width="220" height="40" as="geometry"/>
                </mxCell>
                <mxCell id="kXkB8BaBZtwnOEhQoFVB-11" value="Email address" style="fillColor=none;strokeColor=none;align=left;fontSize=14;" parent="7026571954dc6520-1" vertex="1">
                    <mxGeometry width="260" height="40" relative="1" as="geometry">
                        <mxPoint x="110" y="370" as="offset"/>
                    </mxGeometry>
                </mxCell>
                <mxCell id="kXkB8BaBZtwnOEhQoFVB-12" value="" style="html=1;shadow=0;dashed=0;shape=mxgraph.bootstrap.rrect;rSize=5;fillColor=none;strokeColor=#999999;align=left;spacing=15;fontSize=14;fontColor=#6C767D;" parent="7026571954dc6520-1" vertex="1">
                    <mxGeometry width="800" height="30" relative="1" as="geometry">
                        <mxPoint x="110" y="410" as="offset"/>
                    </mxGeometry>
                </mxCell>
                <mxCell id="kXkB8BaBZtwnOEhQoFVB-14" value="CONNECTED" style="fillColor=none;strokeColor=none;align=left;fontSize=14;" parent="7026571954dc6520-1" vertex="1">
                    <mxGeometry width="260" height="40" relative="1" as="geometry">
                        <mxPoint x="425" y="470" as="offset"/>
                    </mxGeometry>
                </mxCell>
                <mxCell id="kXkB8BaBZtwnOEhQoFVB-19" value="" style="ellipse;whiteSpace=wrap;html=1;aspect=fixed;fillColor=#d5e8d4;strokeColor=#82b366;" parent="7026571954dc6520-1" vertex="1">
                    <mxGeometry x="385" y="470" width="30" height="30" as="geometry"/>
                </mxCell>
                <mxCell id="kXkB8BaBZtwnOEhQoFVB-20" value="LOGOUT" style="labelPosition=center;verticalLabelPosition=middle;align=center;html=1;shape=mxgraph.basic.button;dx=10;" parent="7026571954dc6520-1" vertex="1">
                    <mxGeometry x="470" y="595" width="100" height="60" as="geometry"/>
                </mxCell>
                <mxCell id="2" value="" style="triangle;whiteSpace=wrap;html=1;fillColor=default;rotation=-45;strokeColor=none;" vertex="1" parent="7026571954dc6520-1">
                    <mxGeometry x="530" y="190" width="60" height="80" as="geometry"/>
                </mxCell>
                <mxCell id="3" value="" style="triangle;whiteSpace=wrap;html=1;fillColor=default;rotation=45;strokeColor=none;" vertex="1" parent="7026571954dc6520-1">
                    <mxGeometry x="530" y="290" width="60" height="80" as="geometry"/>
                </mxCell>
                <mxCell id="4" value="" style="triangle;whiteSpace=wrap;html=1;fillColor=default;rotation=135;strokeColor=none;" vertex="1" parent="7026571954dc6520-1">
                    <mxGeometry x="430" y="290" width="60" height="80" as="geometry"/>
                </mxCell>
                <mxCell id="18" value="" style="triangle;whiteSpace=wrap;html=1;fillColor=default;rotation=-135;strokeColor=none;" vertex="1" parent="7026571954dc6520-1">
                    <mxGeometry x="430" y="190" width="60" height="80" as="geometry"/>
                </mxCell>
            </root>
        </mxGraphModel>
    </diagram>
</mxfile>